<svg
    id="icon-external"
    viewBox="0 0 13 13"
    xmlns="http://www.w3.org/2000/svg"
  >
    <path
      d="M7.58333 2.70833C7.43967 2.70833 7.3019 2.65127 7.20032 2.54968C7.09874 2.4481 7.04167 2.31033 7.04167 2.16667C7.04167 2.02301 7.09874 1.88523 7.20032 1.78365C7.3019 1.68207 7.43967 1.625 7.58333 1.625H10.8333C10.977 1.625 11.1148 1.68207 11.2164 1.78365C11.3179 1.88523 11.375 2.02301 11.375 2.16667V5.41667C11.375 5.56033 11.3179 5.6981 11.2164 5.79968C11.1148 5.90127 10.977 5.95833 10.8333 5.95833C10.6897 5.95833 10.5519 5.90127 10.4503 5.79968C10.3487 5.6981 10.2917 5.56033 10.2917 5.41667V3.47425L5.25796 8.50796C5.1558 8.60663 5.01897 8.66122 4.87695 8.65999C4.73493 8.65876 4.59907 8.60179 4.49864 8.50136C4.39821 8.40093 4.34124 8.26507 4.34001 8.12305C4.33878 7.98103 4.39337 7.8442 4.49204 7.74204L9.52575 2.70833H7.58333ZM1.625 3.79167C1.625 3.50435 1.73914 3.2288 1.9423 3.02563C2.14547 2.82247 2.42102 2.70833 2.70833 2.70833H5.41667C5.56033 2.70833 5.6981 2.7654 5.79968 2.86698C5.90127 2.96857 5.95833 3.10634 5.95833 3.25C5.95833 3.39366 5.90127 3.53143 5.79968 3.63302C5.6981 3.7346 5.56033 3.79167 5.41667 3.79167H2.70833V10.2917H9.20833V7.58333C9.20833 7.43967 9.2654 7.3019 9.36698 7.20032C9.46857 7.09874 9.60634 7.04167 9.75 7.04167C9.89366 7.04167 10.0314 7.09874 10.133 7.20032C10.2346 7.3019 10.2917 7.43967 10.2917 7.58333V10.2917C10.2917 10.579 10.1775 10.8545 9.97437 11.0577C9.7712 11.2609 9.49565 11.375 9.20833 11.375H2.70833C2.42102 11.375 2.14547 11.2609 1.9423 11.0577C1.73914 10.8545 1.625 10.579 1.625 10.2917V3.79167Z"
      fill="white"
    />
  </svg>