<svg id="icon-github" viewBox="0 0 23 23" xmlns="http://www.w3.org/2000/svg">
    <path d="M11.491 1.71387C5.93643 1.71162 1.4375 6.2083 1.4375 11.7584C1.4375 16.1473 4.25186 19.878 8.17129 21.2481C8.69912 21.3807 8.61826 21.0056 8.61826 20.7495V19.0088C5.57031 19.3659 5.44678 17.3489 5.24238 17.012C4.8291 16.3067 3.85205 16.1271 4.14404 15.7901C4.83809 15.433 5.54561 15.88 6.36543 17.0906C6.9584 17.9688 8.11514 17.8206 8.70137 17.6746C8.82939 17.1468 9.10342 16.6751 9.48076 16.309C6.32275 15.743 5.00654 13.8158 5.00654 11.5248C5.00654 10.413 5.37266 9.39102 6.09141 8.5667C5.6332 7.20781 6.13408 6.04434 6.20147 5.87139C7.50645 5.75459 8.86309 6.80576 8.96865 6.88887C9.70986 6.68897 10.5566 6.5834 11.5045 6.5834C12.4568 6.5834 13.3059 6.69346 14.0538 6.89561C14.3076 6.70244 15.5654 5.79951 16.7783 5.90957C16.8435 6.08252 17.3331 7.21904 16.9019 8.55996C17.6296 9.38652 18.0002 10.4175 18.0002 11.5315C18.0002 13.8271 16.675 15.7564 13.508 16.3135C13.7793 16.5802 13.9947 16.8984 14.1416 17.2493C14.2885 17.6003 14.364 17.977 14.3638 18.3574V20.8843C14.3817 21.0864 14.3638 21.2863 14.7007 21.2863C18.6785 19.9454 21.5423 16.1877 21.5423 11.7606C21.5423 6.2083 17.0411 1.71387 11.491 1.71387Z" />
  </svg>