<?xml version="1.0" encoding="UTF-8"?>
<svg xmlns="http://www.w3.org/2000/svg" xmlns:xlink="http://www.w3.org/1999/xlink" viewBox="0 0 48 48" width="48px" height="48px">
<g id="surface41894402">
<rect x="0" y="0" width="48" height="48" style="fill:rgb(100%,100%,100%);fill-opacity:1;stroke:none;"/>
<path style=" stroke:none;fill-rule:nonzero;fill:rgb(14.901961%,51.764709%,100%);fill-opacity:1;" d="M 23.859375 31.835938 L 16.128906 24 L 23.859375 16.164062 L 23.859375 0 L 1.777344 22.382812 C 0.894531 23.277344 0.894531 24.722656 1.777344 25.617188 L 23.859375 48 C 23.859375 48 27.242188 45.714844 27.242188 40 C 27.070312 36.96875 25.875 34.085938 23.859375 31.835938 Z M 23.859375 31.835938 "/>
<path style=" stroke:none;fill-rule:nonzero;fill:rgb(11.372549%,47.058824%,94.901961%);fill-opacity:1;" d="M 17.335938 22.476562 L 17.484375 22.625 L 23.859375 16.164062 L 23.859375 0 L 11.90625 12.113281 C 12.804688 15.984375 14.675781 19.554688 17.335938 22.476562 Z M 17.335938 22.476562 "/>
<path style=" stroke:none;fill-rule:nonzero;fill:rgb(7.058824%,41.568628%,89.803922%);fill-opacity:1;" d="M 18.96875 20.898438 L 19.082031 21.011719 L 23.863281 16.164062 L 23.863281 0 L 13.863281 10.132812 C 14.492188 14.148438 16.265625 17.890625 18.96875 20.898438 Z M 18.96875 20.898438 "/>
<path style=" stroke:none;fill-rule:nonzero;fill:rgb(4.313726%,37.64706%,85.490197%);fill-opacity:1;" d="M 23.859375 16.164062 L 23.859375 0 L 15.96875 8 C 16.140625 12.246094 17.808594 16.289062 20.671875 19.394531 Z M 23.859375 16.164062 "/>
<path style=" stroke:none;fill-rule:nonzero;fill:rgb(0.392157%,32.941177%,80.784315%);fill-opacity:1;" d="M 18.222656 8 C 18.222656 13.425781 22.066406 17.566406 22.265625 17.777344 L 23.859375 16.164062 L 23.859375 0 L 18.425781 5.511719 C 18.289062 6.332031 18.222656 7.167969 18.222656 8 Z M 18.222656 8 "/>
<path style=" stroke:none;fill-rule:nonzero;fill:rgb(14.117648%,50.980395%,99.215686%);fill-opacity:1;" d="M 23.859375 16.164062 L 31.59375 24 L 23.859375 31.835938 L 23.859375 48 L 45.945312 25.617188 C 46.824219 24.722656 46.824219 23.277344 45.945312 22.382812 L 23.859375 0 C 23.859375 0 20.476562 2.285156 20.476562 8 C 20.652344 11.03125 21.847656 13.914062 23.859375 16.164062 Z M 23.859375 16.164062 "/>
<path style=" stroke:none;fill-rule:nonzero;fill:rgb(11.372549%,47.058824%,94.901961%);fill-opacity:1;" d="M 30.386719 25.523438 L 30.238281 25.375 L 23.859375 31.835938 L 23.859375 48 L 35.8125 35.886719 C 34.914062 32.015625 33.042969 28.445312 30.386719 25.523438 Z M 30.386719 25.523438 "/>
<path style=" stroke:none;fill-rule:nonzero;fill:rgb(7.058824%,41.568628%,89.803922%);fill-opacity:1;" d="M 28.753906 27.101562 L 28.640625 26.988281 L 23.859375 31.835938 L 23.859375 48 L 33.855469 37.867188 C 33.230469 33.851562 31.453125 30.109375 28.753906 27.101562 Z M 28.753906 27.101562 "/>
<path style=" stroke:none;fill-rule:nonzero;fill:rgb(4.313726%,37.64706%,85.490197%);fill-opacity:1;" d="M 23.859375 31.835938 L 23.859375 48 L 31.753906 40 C 31.582031 35.753906 29.910156 31.710938 27.050781 28.605469 Z M 23.859375 31.835938 "/>
<path style=" stroke:none;fill-rule:nonzero;fill:rgb(0.392157%,32.941177%,80.784315%);fill-opacity:1;" d="M 29.5 40 C 29.5 34.574219 25.65625 30.433594 25.457031 30.222656 L 23.859375 31.835938 L 23.859375 48 L 29.296875 42.488281 C 29.433594 41.667969 29.5 40.832031 29.5 40 Z M 29.5 40 "/>
<path style=" stroke:none;fill-rule:nonzero;fill:rgb(14.901961%,51.764709%,100%);fill-opacity:1;" d="M 23.859375 31.835938 L 16.128906 24 L 3.566406 24 L 3.566406 27.429688 L 23.859375 48 C 23.859375 48 27.242188 45.714844 27.242188 40 C 27.070312 36.96875 25.875 34.085938 23.859375 31.835938 Z M 23.859375 31.835938 "/>
</g>
</svg>
