<svg
    id="icon-linkedin"
    viewBox="0 -4 15 24"
    xmlns="http://www.w3.org/2000/svg"
  >
    <path d="M3.63307 14.9995V4.87904H0.20333V14.9995H3.63307ZM1.91865 3.49643C3.11466 3.49643 3.85912 2.7193 3.85912 1.74814C3.83683 0.755077 3.1147 -0.000488281 1.94134 -0.000488281C0.768163 -0.000488281 0.000976562 0.755092 0.000976562 1.74814C0.000976562 2.71934 0.745253 3.49643 1.89626 3.49643H1.91854H1.91865ZM5.53143 14.9995H8.96117V9.34775C8.96117 9.04528 8.98345 8.74312 9.07403 8.52689C9.32197 7.92256 9.8863 7.29664 10.8337 7.29664C12.0748 7.29664 12.5713 8.22472 12.5713 9.58522V14.9995H16.0009V9.19646C16.0009 6.08785 14.3088 4.64144 12.0522 4.64144C10.202 4.64144 9.38966 5.65577 8.93835 6.34663H8.96125V4.87883H5.5315C5.57651 5.82848 5.5315 14.9993 5.5315 14.9993L5.53143 14.9995Z" />
  </svg>