<?xml version="1.0" encoding="UTF-8"?>
<svg xmlns="http://www.w3.org/2000/svg" xmlns:xlink="http://www.w3.org/1999/xlink" viewBox="0 0 48 48" width="48px" height="48px">
<g id="surface41874251">
<rect x="0" y="0" width="48" height="48" style="fill:rgb(100%,100%,100%);fill-opacity:1;stroke:none;"/>
<path style=" stroke:none;fill-rule:nonzero;fill:rgb(60.784316%,6.27451%,6.27451%);fill-opacity:1;" d="M 42 14 L 40 40 L 14 42 Z M 42 14 "/>
<path style=" stroke:none;fill-rule:nonzero;fill:rgb(71.764708%,10.980392%,10.980392%);fill-opacity:1;" d="M 28 28 L 40 40 L 42 14 Z M 28 28 "/>
<path style=" stroke:none;fill-rule:nonzero;fill:rgb(77.64706%,15.686275%,15.686275%);fill-opacity:1;" d="M 15.753906 15.753906 C 6.917969 24.585938 3.449219 35.441406 8.003906 39.996094 C 12.558594 44.550781 23.414062 41.082031 32.246094 32.246094 C 41.082031 23.414062 44.550781 12.558594 39.996094 8.003906 C 35.441406 3.449219 24.585938 6.917969 15.753906 15.753906 Z M 15.753906 15.753906 "/>
<path style=" stroke:none;fill-rule:nonzero;fill:rgb(89.803922%,22.352941%,20.784314%);fill-opacity:1;" d="M 10 17 L 17 10 L 25 6 L 31 10 L 28 19 L 19 27 L 10 30 L 6 24 Z M 10 17 "/>
<path style=" stroke:none;fill-rule:nonzero;fill:rgb(100%,32.156864%,32.156864%);fill-opacity:1;" d="M 31 10 L 25 6 L 36 6 Z M 42 15 L 31 10 L 28 19 Z M 19 27 L 32.234375 32.234375 L 28 19 Z M 10 30 L 14 42 L 19 27 Z M 6 24 L 6 35 L 10 30 Z M 6 24 "/>
</g>
</svg>
