<?xml version="1.0" encoding="UTF-8"?>
<svg xmlns="http://www.w3.org/2000/svg" xmlns:xlink="http://www.w3.org/1999/xlink" viewBox="0 0 48 48" width="48px" height="48px">
<g id="surface41905796">
<rect x="0" y="0" width="48" height="48" style="fill:rgb(100%,100%,100%);fill-opacity:1;stroke:none;"/>
<path style=" stroke:none;fill-rule:evenodd;fill:rgb(94.117647%,38.431373%,57.254905%);fill-opacity:1;" d="M 24.042969 4.03125 C 35.066406 4.03125 44 12.96875 44 23.988281 C 44 35.011719 35.066406 43.949219 24.042969 43.949219 C 13.019531 43.949219 4.085938 35.011719 4.085938 23.988281 C 4.085938 12.96875 13.019531 4.03125 24.042969 4.03125 Z M 24.042969 4.03125 "/>
<path style=" stroke:none;fill-rule:nonzero;fill:rgb(100%,100%,100%);fill-opacity:1;" d="M 36.5625 12.574219 C 35.65625 9.027344 29.78125 7.863281 24.21875 9.839844 C 20.90625 11.015625 17.324219 12.863281 14.746094 15.273438 C 11.683594 18.136719 11.195312 20.632812 11.394531 21.675781 C 12.105469 25.351562 17.144531 27.753906 19.214844 29.539062 L 19.214844 29.550781 C 18.605469 29.851562 14.136719 32.113281 13.089844 34.425781 C 11.984375 36.867188 13.265625 38.617188 14.113281 38.851562 C 16.738281 39.582031 19.429688 38.269531 20.878906 36.109375 C 22.273438 34.027344 22.160156 31.335938 21.550781 29.996094 C 22.390625 29.777344 23.367188 29.679688 24.605469 29.824219 C 28.105469 30.230469 28.792969 32.417969 28.660156 33.332031 C 28.53125 34.246094 27.796875 34.75 27.550781 34.902344 C 27.304688 35.054688 27.230469 35.109375 27.25 35.21875 C 27.28125 35.382812 27.394531 35.378906 27.605469 35.34375 C 27.890625 35.292969 29.441406 34.597656 29.507812 32.910156 C 29.59375 30.765625 27.539062 28.367188 23.902344 28.429688 C 22.402344 28.457031 21.460938 28.597656 20.78125 28.851562 C 20.730469 28.796875 20.679688 28.738281 20.625 28.679688 C 18.378906 26.28125 14.21875 24.585938 14.394531 21.359375 C 14.460938 20.183594 14.867188 17.097656 22.382812 13.351562 C 28.542969 10.28125 33.472656 11.128906 34.324219 12.996094 C 35.539062 15.671875 31.6875 20.640625 25.292969 21.359375 C 22.855469 21.632812 21.574219 20.6875 21.253906 20.335938 C 20.917969 19.964844 20.867188 19.949219 20.742188 20.019531 C 20.539062 20.132812 20.667969 20.457031 20.742188 20.652344 C 20.933594 21.148438 21.71875 22.03125 23.054688 22.46875 C 24.230469 22.855469 27.089844 23.066406 30.550781 21.730469 C 34.425781 20.230469 37.449219 16.058594 36.5625 12.574219 Z M 20.074219 30.636719 C 20.367188 31.710938 20.335938 32.714844 20.035156 33.621094 C 20.003906 33.722656 19.964844 33.820312 19.925781 33.921875 C 19.886719 34.019531 19.84375 34.117188 19.796875 34.210938 C 19.566406 34.691406 19.253906 35.140625 18.875 35.554688 C 17.714844 36.820312 16.09375 37.300781 15.398438 36.894531 C 14.648438 36.460938 15.027344 34.679688 16.371094 33.257812 C 17.816406 31.726562 19.898438 30.742188 19.898438 30.742188 L 19.894531 30.738281 C 19.953125 30.703125 20.015625 30.671875 20.074219 30.636719 Z M 20.074219 30.636719 "/>
</g>
</svg>
