<?xml version="1.0" encoding="UTF-8"?>
<svg xmlns="http://www.w3.org/2000/svg" xmlns:xlink="http://www.w3.org/1999/xlink" viewBox="0 0 48 48" width="48px" height="48px">
<g id="surface41906291">
<rect x="0" y="0" width="48" height="48" style="fill:rgb(100%,100%,100%);fill-opacity:1;stroke:none;"/>
<path style=" stroke:none;fill-rule:nonzero;fill:rgb(9.803922%,46.27451%,82.352942%);fill-opacity:1;" d="M 6 6 L 42 6 L 42 42 L 6 42 Z M 6 6 "/>
<path style=" stroke:none;fill-rule:nonzero;fill:rgb(100%,100%,100%);fill-opacity:1;" d="M 27.488281 22 L 14.226562 22 L 14.226562 25.265625 L 18.984375 25.265625 L 18.984375 40 L 22.753906 40 L 22.753906 25.265625 L 27.488281 25.265625 Z M 27.488281 22 "/>
<path style=" stroke:none;fill-rule:nonzero;fill:rgb(100%,100%,100%);fill-opacity:1;" d="M 39.195312 26.085938 C 39.195312 26.085938 37.40625 24.890625 35.386719 24.890625 C 33.367188 24.890625 32.640625 25.851562 32.640625 26.878906 C 32.640625 29.527344 40.019531 29.261719 40.019531 34.589844 C 40.019531 42.800781 28.765625 39.15625 28.765625 39.15625 L 28.765625 35.21875 C 28.765625 35.21875 30.917969 36.84375 33.5 36.84375 C 36.082031 36.84375 35.984375 35.152344 35.984375 34.921875 C 35.984375 32.472656 28.667969 32.472656 28.667969 27.042969 C 28.667969 19.664062 39.324219 22.574219 39.324219 22.574219 Z M 39.195312 26.085938 "/>
</g>
</svg>
